<svg width="117" height="48" viewBox="0 0 117 48" fill="none" xmlns="http://www.w3.org/2000/svg">
<path d="M0.160511 37V0.636363H7.84872V30.6612H23.4382V37H0.160511ZM40.71 37.5327C37.952 37.5327 35.5668 36.9467 33.5545 35.7749C31.554 34.5911 30.0093 32.9458 28.9203 30.8388C27.8313 28.7199 27.2868 26.2637 27.2868 23.4702C27.2868 20.6529 27.8313 18.1908 28.9203 16.0838C30.0093 13.965 31.554 12.3196 33.5545 11.1477C35.5668 9.96401 37.952 9.37216 40.71 9.37216C43.4681 9.37216 45.8474 9.96401 47.8478 11.1477C49.8601 12.3196 51.4108 13.965 52.4998 16.0838C53.5888 18.1908 54.1333 20.6529 54.1333 23.4702C54.1333 26.2637 53.5888 28.7199 52.4998 30.8388C51.4108 32.9458 49.8601 34.5911 47.8478 35.7749C45.8474 36.9467 43.4681 37.5327 40.71 37.5327ZM40.7456 31.6733C42.0003 31.6733 43.0479 31.3182 43.8883 30.608C44.7288 29.8859 45.362 28.9034 45.7882 27.6605C46.2261 26.4176 46.4451 25.0031 46.4451 23.4169C46.4451 21.8307 46.2261 20.4162 45.7882 19.1733C45.362 17.9304 44.7288 16.9479 43.8883 16.2259C43.0479 15.5038 42.0003 15.1428 40.7456 15.1428C39.479 15.1428 38.4136 15.5038 37.5495 16.2259C36.6973 16.9479 36.0521 17.9304 35.6142 19.1733C35.188 20.4162 34.975 21.8307 34.975 23.4169C34.975 25.0031 35.188 26.4176 35.6142 27.6605C36.0521 28.9034 36.6973 29.8859 37.5495 30.608C38.4136 31.3182 39.479 31.6733 40.7456 31.6733ZM71.3386 47.7955C68.8883 47.7955 66.7872 47.4581 65.0353 46.7834C63.2953 46.1205 61.9103 45.215 60.8805 44.0668C59.8507 42.9186 59.1819 41.6283 58.8741 40.196L65.8699 39.255C66.0829 39.7995 66.4203 40.3085 66.8819 40.782C67.3436 41.2554 67.9532 41.6342 68.7108 41.9183C69.4802 42.2143 70.4153 42.3622 71.5162 42.3622C73.1615 42.3622 74.5169 41.9598 75.5822 41.1548C76.6594 40.3617 77.198 39.0301 77.198 37.1598V32.1705H76.8784C76.5469 32.928 76.0498 33.6442 75.3869 34.3189C74.724 34.9936 73.8717 35.544 72.8301 35.9702C71.7884 36.3963 70.5455 36.6094 69.1014 36.6094C67.0536 36.6094 65.1892 36.1359 63.5083 35.1889C61.8393 34.2301 60.5076 32.7682 59.5133 30.8033C58.5308 28.8265 58.0396 26.3288 58.0396 23.3104C58.0396 20.2209 58.5427 17.6404 59.5488 15.5689C60.555 13.4974 61.8926 11.9467 63.5616 10.9169C65.2425 9.88707 67.0832 9.37216 69.0836 9.37216C70.6106 9.37216 71.889 9.63258 72.9189 10.1534C73.9487 10.6624 74.7773 11.3016 75.4047 12.071C76.0439 12.8286 76.5351 13.5743 76.8784 14.3082H77.1625V9.72727H84.6731V37.2663C84.6731 39.5864 84.1049 41.5277 82.9686 43.0902C81.8322 44.6527 80.2579 45.8246 78.2456 46.6058C76.2451 47.3989 73.9428 47.7955 71.3386 47.7955ZM71.4984 30.9276C72.7176 30.9276 73.7475 30.6257 74.5879 30.022C75.4402 29.4065 76.0912 28.5305 76.541 27.3942C77.0027 26.246 77.2335 24.8729 77.2335 23.2749C77.2335 21.6768 77.0086 20.2919 76.5588 19.12C76.109 17.9363 75.4579 17.0189 74.6056 16.3679C73.7534 15.7169 72.7176 15.3913 71.4984 15.3913C70.2555 15.3913 69.2079 15.7287 68.3556 16.4034C67.5034 17.0663 66.8583 17.9896 66.4203 19.1733C65.9823 20.357 65.7633 21.7242 65.7633 23.2749C65.7633 24.8492 65.9823 26.2105 66.4203 27.3587C66.8701 28.495 67.5152 29.3769 68.3556 30.0043C69.2079 30.6198 70.2555 30.9276 71.4984 30.9276ZM103.015 37.5327C100.257 37.5327 97.8715 36.9467 95.8592 35.7749C93.8587 34.5911 92.314 32.9458 91.225 30.8388C90.1359 28.7199 89.5914 26.2637 89.5914 23.4702C89.5914 20.6529 90.1359 18.1908 91.225 16.0838C92.314 13.965 93.8587 12.3196 95.8592 11.1477C97.8715 9.96401 100.257 9.37216 103.015 9.37216C105.773 9.37216 108.152 9.96401 110.153 11.1477C112.165 12.3196 113.715 13.965 114.805 16.0838C115.894 18.1908 116.438 20.6529 116.438 23.4702C116.438 26.2637 115.894 28.7199 114.805 30.8388C113.715 32.9458 112.165 34.5911 110.153 35.7749C108.152 36.9467 105.773 37.5327 103.015 37.5327ZM103.05 31.6733C104.305 31.6733 105.353 31.3182 106.193 30.608C107.033 29.8859 107.667 28.9034 108.093 27.6605C108.531 26.4176 108.75 25.0031 108.75 23.4169C108.75 21.8307 108.531 20.4162 108.093 19.1733C107.667 17.9304 107.033 16.9479 106.193 16.2259C105.353 15.5038 104.305 15.1428 103.05 15.1428C101.784 15.1428 100.718 15.5038 99.8542 16.2259C99.002 16.9479 98.3568 17.9304 97.9189 19.1733C97.4927 20.4162 97.2797 21.8307 97.2797 23.4169C97.2797 25.0031 97.4927 26.4176 97.9189 27.6605C98.3568 28.9034 99.002 29.8859 99.8542 30.608C100.718 31.3182 101.784 31.6733 103.05 31.6733Z" fill="white"/>
</svg>
